<svg xmlns="http://www.w3.org/2000/svg" x="0px" y="0px" width="100" height="100" viewBox="0,0,256,256"
style="fill:#0000ff;">
<g fill="#ffdb70" fill-rule="nonzero" stroke="none" stroke-width="1" stroke-linecap="butt" stroke-linejoin="miter" stroke-miterlimit="10" stroke-dasharray="" stroke-dashoffset="0" font-family="none" font-weight="none" font-size="none" text-anchor="none" style="mix-blend-mode: normal"><g transform="scale(5.12,5.12)"><path d="M25,2c-12.682,0 -23,10.317 -23,23c0,12.683 10.318,23 23,23c12.682,0 23,-10.317 23,-23c0,-3.425 -0.75842,-6.67561 -2.10742,-9.59961c-0.925,1.511 -2.36413,2.67347 -4.07812,3.23047c0.754,1.984 1.18555,4.12414 1.18555,6.36914c0,9.925 -8.075,18 -18,18c-9.925,0 -18,-8.075 -18,-18c0,-9.925 8.075,-18 18,-18c2.7,0 5.25273,0.61359 7.55273,1.68359c0.675,-1.66 1.92781,-3.0218 3.50781,-3.8418c-3.284,-1.81 -7.05355,-2.8418 -11.06055,-2.8418zM39.5,6c-3.03757,0 -5.5,2.46243 -5.5,5.5c0,3.03757 2.46243,5.5 5.5,5.5c3.03757,0 5.5,-2.46243 5.5,-5.5c0,-3.03757 -2.46243,-5.5 -5.5,-5.5zM25,15c-5.52285,0 -10,4.47715 -10,10c0,5.52285 4.47715,10 10,10c5.52285,0 10,-4.47715 10,-10c0,-5.52285 -4.47715,-10 -10,-10z"></path></g></g>
</svg>
